<svg width="32" height="32" viewBox="0 0 32 32" fill="none" xmlns="http://www.w3.org/2000/svg">
  <defs>
    <linearGradient id="brandGradient" x1="0%" y1="0%" x2="100%" y2="100%">
      <stop offset="0%" style="stop-color:#F97316;stop-opacity:1" />
      <stop offset="100%" style="stop-color:#EA580C;stop-opacity:1" />
    </linearGradient>
  </defs>
  
  <!-- Background Circle -->
  <circle cx="16" cy="16" r="16" fill="url(#brandGradient)"/>
  
  <!-- Main S shape -->
  <path
    d="M16 4C9.37258 4 4 9.37258 4 16C4 22.6274 9.37258 28 16 28C22.6274 28 28 22.6274 28 16"
    stroke="white"
    strokeWidth="3"
    strokeLinecap="round"
    opacity="0.3"
  />
  <path
    d="M22 10C24.5 11.5 26 14 26 16C26 21.5228 21.5228 26 16 26C10.4772 26 6 21.5228 6 16C6 10.4772 10.4772 6 16 6"
    stroke="white"
    strokeWidth="3"
    strokeLinecap="round"
  />
  
  <!-- The Spark / IQ Dot -->
  <circle cx="22" cy="10" r="3" fill="white"/>
  
  <!-- Inner geometric accent -->
  <path
    d="M16 12C13.7909 12 12 13.7909 12 16C12 18.2091 13.7909 20 16 20"
    stroke="white"
    strokeWidth="3"
    strokeLinecap="round"
  />
</svg>
